<svg width="24" height="24" xmlns="http://www.w3.org/2000/svg" fill="none" viewBox="0 0 38 38" data-testid="GhostIconFilled"><path d="M35.834 26.77c-.155-.517-.905-.878-.905-.878-.067-.041-.134-.072-.186-.098-1.245-.6-2.345-1.323-3.27-2.145a11.073 11.073 0 01-1.896-2.159c-.625-.94-.92-1.73-1.044-2.154-.072-.28-.056-.388 0-.533.052-.118.191-.237.264-.289.418-.294 1.095-.734 1.508-1.002.357-.233.667-.434.848-.558.584-.408.981-.822 1.219-1.271.305-.579.341-1.22.103-1.845-.32-.847-1.11-1.353-2.113-1.353-.222 0-.454.026-.682.072-.573.124-1.12.33-1.575.506-.032.016-.068-.01-.068-.046.047-1.131.104-2.65-.02-4.097-.114-1.307-.383-2.408-.822-3.369-.444-.966-1.012-1.679-1.467-2.19a9.034 9.034 0 00-2.315-1.865C21.817.58 19.998.116 18.01.116c-1.984 0-3.797.465-5.399 1.374a9.18 9.18 0 00-2.32 1.866c-.449.516-1.023 1.23-1.467 2.19-.439.961-.708 2.062-.821 3.369-.124 1.446-.073 2.847-.021 4.097 0 .036-.036.062-.067.046-.455-.175-1.002-.382-1.576-.506a3.065 3.065 0 00-.682-.072c-1.002 0-1.793.506-2.113 1.353a2.191 2.191 0 00.103 1.845c.238.45.636.863 1.22 1.27.18.125.49.326.847.559.408.263 1.064.687 1.483.986.051.037.227.17.284.31.062.15.072.259-.005.553-.13.429-.424 1.21-1.039 2.134a11.07 11.07 0 01-1.896 2.16c-.93.821-2.03 1.544-3.27 2.144-.057.026-.13.062-.207.108-.077.047-.744.377-.883.868-.207.723.34 1.4.909 1.767.92.594 2.04.915 2.692 1.085.18.047.346.093.496.14.093.03.325.118.428.247.124.16.14.362.186.59.073.382.233.852.703 1.177.517.357 1.178.383 2.01.414.873.03 1.958.077 3.198.485.573.192 1.095.512 1.7.884 1.26.775 2.83 1.741 5.512 1.741 2.682 0 4.263-.971 5.534-1.746.599-.367 1.116-.687 1.679-.873 1.24-.409 2.325-.45 3.198-.486.832-.031 1.493-.057 2.01-.413.506-.347.65-.868.718-1.261.036-.191.062-.367.17-.512.093-.123.31-.206.413-.242.155-.047.32-.093.512-.145.651-.176 1.462-.377 2.454-.94 1.173-.672 1.256-1.504 1.132-1.912z" fill="#fff"/><path fill-rule="evenodd" clip-rule="evenodd" d="M36.523 25.946c.574.32 1.075.703 1.339 1.42.3.802.118 1.716-.605 2.491l-.01.01c-.258.295-.594.553-1.018.786-.96.532-1.772.785-2.407.96-.12.037-.347.12-.45.207-.145.124-.205.284-.28.482-.057.15-.121.32-.237.516a2.729 2.729 0 01-.8.873c-.781.539-1.654.573-2.583.609h-.016c-.848.031-1.803.068-2.893.43-.42.137-.864.408-1.376.72l-.071.044c-1.312.806-3.115 1.911-6.112 1.911-2.992 0-4.78-1.097-6.091-1.903l-.005-.003c-.543-.336-1.013-.625-1.468-.775-1.095-.362-2.05-.398-2.893-.429h-.016c-.93-.036-1.802-.07-2.583-.61a2.629 2.629 0 01-.702-.713c-.185-.265-.27-.49-.34-.68-.074-.196-.133-.353-.275-.477-.114-.098-.372-.18-.48-.212a10.472 10.472 0 01-2.377-.95 3.862 3.862 0 01-.972-.734c-.77-.79-.97-1.726-.666-2.552.344-.93 1.087-1.304 1.866-1.695.134-.068.268-.135.402-.206 1.726-.936 3.08-2.108 4.025-3.493.315-.465.542-.889.697-1.235.088-.253.088-.387.026-.516-.052-.109-.212-.228-.258-.259-.236-.157-.48-.315-.673-.44l-.133-.087a48.827 48.827 0 01-.879-.578c-.733-.512-1.245-1.054-1.565-1.664a3.34 3.34 0 01-.16-2.759c.486-1.276 1.694-2.072 3.157-2.072.304 0 .614.031.92.099l.118.028.119.028a26.58 26.58 0 01.083-2.702c.273-3.187 1.39-4.861 2.557-6.194a10.172 10.172 0 012.604-2.098C14.814.511 16.813 0 18.994 0c2.185 0 4.19.511 5.957 1.524 1.265.729 2.113 1.54 2.598 2.098 1.168 1.333 2.284 3.001 2.558 6.194.077.904.098 1.834.082 2.702.078-.02.155-.04.238-.056.31-.062.615-.099.92-.099 1.467 0 2.67.796 3.156 2.072.347.925.29 1.901-.16 2.76-.32.609-.832 1.151-1.565 1.663-.17.12-.431.288-.756.499l-.122.08-.313.204c-.164.106-.347.226-.524.343a.838.838 0 00-.228.238c-.057.118-.062.253.02.49.161.352.388.786.714 1.261.966 1.416 2.356 2.61 4.143 3.555.176.087.352.175.522.263.083.041.181.093.29.155zm-3.545 3.693c.612-.164 1.337-.358 2.223-.846 1.033-.574.45-.925.093-1.09-5.88-2.847-6.82-7.244-6.861-7.574l-.006-.046c-.044-.371-.08-.673.337-1.06.282-.261 1.224-.872 1.965-1.352.357-.23.667-.432.835-.55.857-.593 1.235-1.193.956-1.926-.192-.507-.667-.698-1.168-.698-.155 0-.31.02-.465.052-.56.12-1.11.335-1.575.517-.317.123-.593.231-.807.284a.977.977 0 01-.196.026c-.28 0-.382-.124-.362-.465l.006-.088c.069-1.052.197-2.997.04-4.816-.221-2.572-1.053-3.849-2.04-4.98-.47-.542-2.687-2.893-6.954-2.893-4.257 0-6.479 2.35-6.954 2.893-.987 1.126-1.819 2.408-2.04 4.98-.15 1.74-.035 3.596.031 4.674l.015.23c.02.325-.083.465-.362.465a.933.933 0 01-.196-.026c-.22-.052-.507-.164-.834-.291-.46-.18-1-.39-1.548-.51a2.33 2.33 0 00-.465-.052c-.501 0-.977.191-1.168.698-.279.733.098 1.327.956 1.927.156.108.436.289.762.5.75.486 1.746 1.13 2.038 1.401.426.386.386.694.335 1.071l-.004.035c-.041.33-.977 4.727-6.861 7.574-.346.165-.93.516.103 1.09.888.492 1.615.685 2.228.848.508.135.937.25 1.316.495.386.249.44.653.491 1.029.043.318.083.616.32.78.276.19.787.21 1.474.236.9.034 2.1.08 3.476.533.685.227 1.28.593 1.908.978 1.232.757 2.588 1.59 4.984 1.59 2.393 0 3.763-.84 4.999-1.598.627-.384 1.219-.747 1.893-.97 1.376-.453 2.577-.5 3.476-.533.688-.027 1.198-.046 1.474-.237.24-.166.28-.465.322-.784.05-.374.104-.776.489-1.024.382-.246.813-.361 1.321-.497z" fill="#000"/></svg>